<svg width="32" height="32" viewBox="0 0 32 32" fill="none" xmlns="http://www.w3.org/2000/svg">
<g clip-path="url(#clip0_27_19)">
<g clip-path="url(#clip1_27_19)">
<path d="M24.5987 9.1933C24.5986 8.85014 24.4623 8.52106 24.2196 8.27841C23.977 8.03577 23.6479 7.89942 23.3048 7.89937L11.6576 7.89937C11.4843 7.89393 11.3117 7.92337 11.1499 7.98595C10.9882 8.04853 10.8407 8.14298 10.7162 8.26367C10.5917 8.38437 10.4927 8.52886 10.4252 8.68856C10.3576 8.84825 10.3228 9.0199 10.3229 9.19331C10.3229 9.36672 10.3578 9.53834 10.4255 9.69799C10.4932 9.85764 10.5923 10.0021 10.7169 10.1227C10.8415 10.2433 10.989 10.3376 11.1508 10.4001C11.3126 10.4626 11.4852 10.4919 11.6585 10.4863L22.0108 10.4872V20.8404C22.0167 21.1797 22.1556 21.5031 22.3977 21.7409C22.6397 21.9788 22.9654 22.1121 23.3048 22.1121C23.6441 22.1121 23.9698 21.9788 24.2118 21.7409C24.4539 21.5031 24.5928 21.1797 24.5987 20.8404L24.5987 9.1933ZM9.57856 24.7496L24.2198 10.1084L22.3897 8.27822L7.74841 22.9195L9.57856 24.7496Z" fill="white"/>
</g>
</g>
<defs>
<clipPath id="clip0_27_19">
<rect width="22" height="22" fill="white" transform="translate(0.886719 16.0564) rotate(-45)"/>
</clipPath>
<clipPath id="clip1_27_19">
<rect width="22" height="20.7059" fill="white" transform="translate(1.34375 16.5139) rotate(-45)"/>
</clipPath>
</defs>
</svg>
