<svg width="179" height="86" viewBox="0 0 179 86" fill="none" xmlns="http://www.w3.org/2000/svg">
<ellipse cx="86.2608" cy="26.3546" rx="9.60646" ry="9.91635" fill="white"/>
<ellipse cx="102.685" cy="43.0885" rx="9.60646" ry="9.91635" fill="white"/>
<ellipse cx="70.4561" cy="42.4687" rx="9.60646" ry="9.91635" fill="white"/>
<ellipse cx="47.3684" cy="44.9477" rx="3.56369" ry="9.91635" fill="white"/>
<ellipse cx="53.1618" cy="19.1683" rx="3.56369" ry="5.76186" transform="rotate(35.723 53.1618 19.1683)" fill="white"/>
<ellipse cx="62.7936" cy="9.23053" rx="2.64627" ry="5.09909" transform="rotate(52.871 62.7936 9.23053)" fill="white"/>
<ellipse cx="58.6637" cy="28.4445" rx="5.84019" ry="8.07812" transform="rotate(38.3383 58.6637 28.4445)" fill="white"/>
<ellipse cx="72.6519" cy="14.9453" rx="5.84019" ry="8.07812" transform="rotate(50.0802 72.6519 14.9453)" fill="white"/>
<ellipse cx="100.051" cy="14.565" rx="5.84019" ry="8.07812" transform="rotate(137.55 100.051 14.565)" fill="white"/>
<ellipse cx="114.615" cy="29.1296" rx="5.84019" ry="8.07812" transform="rotate(137.55 114.615 29.1296)" fill="white"/>
<ellipse cx="120.308" cy="19.3945" rx="2.7118" ry="5.35234" transform="rotate(143.236 120.308 19.3945)" fill="white"/>
<ellipse cx="109.882" cy="8.95953" rx="2.7118" ry="5.35234" transform="rotate(123.715 109.882 8.95953)" fill="white"/>
<ellipse cx="85.8215" cy="3.48693" rx="3.3833" ry="6.64194" transform="rotate(90.8979 85.8215 3.48693)" fill="white"/>
<ellipse cx="126.055" cy="43.1369" rx="3.3833" ry="6.64194" transform="rotate(175.917 126.055 43.1369)" fill="white"/>
<ellipse cx="120.429" cy="65.7029" rx="3.3833" ry="6.64194" transform="rotate(-157.611 120.429 65.7029)" fill="white"/>
<ellipse cx="110.114" cy="76.3211" rx="2.85342" ry="5.60171" transform="rotate(-127.056 110.114 76.3211)" fill="white"/>
<ellipse cx="87.4991" cy="81.9792" rx="3.56369" ry="6.81749" transform="rotate(-90 87.4991 81.9792)" fill="white"/>
<ellipse cx="63.3881" cy="76.3624" rx="2.61416" ry="5.00101" transform="rotate(-60 63.3881 76.3624)" fill="white"/>
<ellipse cx="73.1159" cy="70.9258" rx="5.57487" ry="8.83233" transform="rotate(-51.8457 73.1159 70.9258)" fill="white"/>
<ellipse cx="100.476" cy="70.9394" rx="5.57487" ry="8.83233" transform="rotate(45 100.476 70.9394)" fill="white"/>
<ellipse cx="86.57" cy="59.9773" rx="9.29658" ry="8.83175" fill="white"/>
<ellipse cx="52.4496" cy="64.8729" rx="2.66844" ry="6.3632" transform="rotate(-30 52.4496 64.8729)" fill="white"/>
<ellipse cx="60.2397" cy="59.4076" rx="4.37282" ry="4.83815" transform="rotate(-15 60.2397 59.4076)" fill="white"/>
<ellipse cx="112.635" cy="59.3924" rx="4.37282" ry="4.83815" fill="white"/>
<rect y="31.9326" width="179" height="28.1977" rx="10" fill="black"/>
<path d="M11.9904 41.0166H13.3373V47.6369H13.421L18.0076 41.0166H19.2666V50.0315H17.9064V43.42H17.8228L13.2449 50.0315H11.9904V41.0166ZM21.2507 50.0315V41.0166H22.6108V44.9342H27.105V41.0166H28.4696V50.0315H27.105V46.1007H22.6108V50.0315H21.2507ZM30.0058 42.1875V41.0166H36.9827V42.1875H34.1699V50.0315H32.8142V42.1875H30.0058ZM38.5244 50.0315V41.0166H44.1763V42.1875H39.8845V44.9342H43.8814V46.1007H39.8845V48.8606H44.2291V50.0315H38.5244ZM45.9931 50.0315V41.0166H49.2064C49.9078 41.0166 50.4888 41.1443 50.9495 41.3996C51.4103 41.6549 51.7551 42.0041 51.984 42.4472C52.2129 42.8874 52.3273 43.3833 52.3273 43.935C52.3273 44.4896 52.2114 44.9885 51.9796 45.4316C51.7507 45.8718 51.4044 46.221 50.9407 46.4793C50.48 46.7346 49.9004 46.8622 49.202 46.8622H46.9923V45.7089H49.0788C49.5219 45.7089 49.8814 45.6326 50.1572 45.48C50.4331 45.3245 50.6355 45.1132 50.7647 44.8462C50.8938 44.5791 50.9583 44.2754 50.9583 43.935C50.9583 43.5946 50.8938 43.2924 50.7647 43.0282C50.6355 42.7641 50.4316 42.5573 50.1528 42.4076C49.877 42.2579 49.5131 42.1831 49.0612 42.1831H47.3533V50.0315H45.9931ZM53.9218 50.0315V41.0166H55.282V44.9342H59.7762V41.0166H61.1408V50.0315H59.7762V46.1007H55.282V50.0315H53.9218ZM63.1216 50.0315V41.0166H68.7735V42.1875H64.4817V44.9342H68.4786V46.1007H64.4817V48.8606H68.8263V50.0315H63.1216ZM70.1457 42.1875V41.0166H77.1226V42.1875H74.3098V50.0315H72.9541V42.1875H70.1457ZM81.5002 42.1875V41.0166H88.477V42.1875H85.6642V50.0315H84.3085V42.1875H81.5002ZM90.0187 50.0315V41.0166H95.6706V42.1875H91.3789V44.9342H95.3757V46.1007H91.3789V48.8606H95.7234V50.0315H90.0187ZM98.4338 41.0166L100.591 44.5425H100.661L102.818 41.0166H104.394L101.586 45.5241L104.411 50.0315H102.827L100.661 46.5541H100.591L98.425 50.0315H96.8404L99.7148 45.5241L96.858 41.0166H98.4338ZM105.743 50.0315V41.0166H107.103V44.9342H111.597V41.0166H112.962V50.0315H111.597V46.1007H107.103V50.0315H105.743ZM122.774 45.5241C122.774 46.4866 122.597 47.3141 122.245 48.0067C121.893 48.6963 121.41 49.2274 120.797 49.6001C120.187 49.9699 119.493 50.1547 118.715 50.1547C117.934 50.1547 117.238 49.9699 116.624 49.6001C116.014 49.2274 115.533 48.6948 115.18 48.0023C114.828 47.3097 114.652 46.4837 114.652 45.5241C114.652 44.5615 114.828 43.7355 115.18 43.0459C115.533 42.3533 116.014 41.8222 116.624 41.4524C117.238 41.0797 117.934 40.8934 118.715 40.8934C119.493 40.8934 120.187 41.0797 120.797 41.4524C121.41 41.8222 121.893 42.3533 122.245 43.0459C122.597 43.7355 122.774 44.5615 122.774 45.5241ZM121.427 45.5241C121.427 44.7904 121.308 44.1727 121.07 43.6709C120.835 43.1662 120.512 42.7847 120.102 42.5264C119.694 42.2653 119.232 42.1347 118.715 42.1347C118.196 42.1347 117.732 42.2653 117.324 42.5264C116.916 42.7847 116.593 43.1662 116.356 43.6709C116.121 44.1727 116.004 44.7904 116.004 45.5241C116.004 46.2577 116.121 46.8769 116.356 47.3816C116.593 47.8834 116.916 48.2649 117.324 48.5261C117.732 48.7843 118.196 48.9134 118.715 48.9134C119.232 48.9134 119.694 48.7843 120.102 48.5261C120.512 48.2649 120.835 47.8834 121.07 47.3816C121.308 46.8769 121.427 46.2577 121.427 45.5241ZM123.787 50.0315V48.8518L124.051 48.843C124.409 48.8342 124.691 48.7124 124.896 48.4777C125.105 48.2429 125.256 47.8643 125.35 47.342C125.447 46.8197 125.511 46.1227 125.543 45.2512L125.697 41.0166H131.398V50.0315H130.055V42.1699H126.978L126.837 45.6121C126.799 46.5776 126.702 47.389 126.547 48.0463C126.391 48.7007 126.127 49.1952 125.755 49.5297C125.385 49.8642 124.858 50.0315 124.174 50.0315H123.787ZM141.209 45.5241C141.209 46.4866 141.033 47.3141 140.681 48.0067C140.329 48.6963 139.846 49.2274 139.233 49.6001C138.623 49.9699 137.929 50.1547 137.151 50.1547C136.37 50.1547 135.673 49.9699 135.06 49.6001C134.45 49.2274 133.968 48.6948 133.616 48.0023C133.264 47.3097 133.088 46.4837 133.088 45.5241C133.088 44.5615 133.264 43.7355 133.616 43.0459C133.968 42.3533 134.45 41.8222 135.06 41.4524C135.673 41.0797 136.37 40.8934 137.151 40.8934C137.929 40.8934 138.623 41.0797 139.233 41.4524C139.846 41.8222 140.329 42.3533 140.681 43.0459C141.033 43.7355 141.209 44.5615 141.209 45.5241ZM139.862 45.5241C139.862 44.7904 139.744 44.1727 139.506 43.6709C139.271 43.1662 138.948 42.7847 138.537 42.5264C138.13 42.2653 137.667 42.1347 137.151 42.1347C136.631 42.1347 136.168 42.2653 135.76 42.5264C135.352 42.7847 135.029 43.1662 134.792 43.6709C134.557 44.1727 134.439 44.7904 134.439 45.5241C134.439 46.2577 134.557 46.8769 134.792 47.3816C135.029 47.8834 135.352 48.2649 135.76 48.5261C136.168 48.7843 136.631 48.9134 137.151 48.9134C137.667 48.9134 138.13 48.7843 138.537 48.5261C138.948 48.2649 139.271 47.8834 139.506 47.3816C139.744 46.8769 139.862 46.2577 139.862 45.5241ZM148.526 41.0166V42.1875H144.265V50.0315H142.905V41.0166H148.526ZM150.059 41.0166H151.406V47.6369H151.49L156.076 41.0166H157.335V50.0315H155.975V43.42H155.891L151.314 50.0315H150.059V41.0166ZM159.319 41.0166H160.666V47.6369H160.75L165.337 41.0166H166.596V50.0315H165.235V43.42H165.152L160.574 50.0315H159.319V41.0166Z" fill="white"/>
</svg>
